<?xml version="1.0" encoding="UTF-8" standalone="no"?>
<svg width="32px" height="32px" viewBox="0 0 32 32" version="1.1" xmlns="http://www.w3.org/2000/svg" xmlns:xlink="http://www.w3.org/1999/xlink">
    <!-- Generator: Sketch 41 (35326) - http://www.bohemiancoding.com/sketch -->
    <title>Slice 1</title>
    <desc>Created with Sketch.</desc>
    <defs></defs>
    <g id="Page-1" stroke="none" stroke-width="1" fill="none" fill-rule="evenodd">
        <path d="M15.321728,6.05283341 L15.3276582,6.05747543 L12.9699248,6.05747543 L12.9699248,7.71124807 L14.9345432,7.87815922 C14.9345432,7.87815922 14.9368388,26.7810993 14.9379866,26.8045113 L17.2897897,26.8045113 C17.2909375,26.7831176 17.2928505,10.1997783 17.2932331,7.6603876 L17.2932331,7.6603876 L17.2932331,7.31465749 L17.2932331,7.30153871 L17.2932331,6.05263158 L15.321728,6.05263158 L15.321728,6.05283341 Z" id="Shape" fill="#EE3D96"></path>
        <polygon id="Shape" fill="#EE3D96" points="7.52425651 6.58837097 7.04814316 6.05263158 5.18796992 6.05263158 5.18796992 7.16066575 5.18796992 7.4975845 5.18796992 19.887218 7.62073852 19.887218 7.62073852 10.125307 12.5451805 15.0489105 13.8345865 16.3433771 13.8345865 12.8846289"></polygon>
        <path d="M21.7302126,6.30140406 L21.7302126,6.29977828 C21.7302126,6.29977828 20.6184766,5.9748259 19.0225564,6.07013714 L19.0225564,8.1265431 C19.0927651,8.12837211 19.1739869,8.13060755 19.2646485,8.13324944 C20.2304605,8.19441934 22.3982768,8.52912639 23.6059843,10.2536704 C24.0290064,10.9409681 24.3149544,11.5703474 24.4156458,12.3675883 C24.4252823,12.4543642 24.4364921,12.5395143 24.4427853,12.6295418 C24.4518318,12.7516783 24.4567484,12.873002 24.4567484,12.9941225 C24.4567484,15.1421817 22.9902324,16.9356181 21.0355989,17.3656363 C20.4306635,17.4615572 19.0260963,17.481473 19.0260963,17.481473 L19.0260963,19.8520606 C19.4837311,19.890876 19.9047866,19.8937212 20.278643,19.8776666 L20.278643,19.887218 C20.6591859,19.8786827 21.0312723,19.8353964 21.3933288,19.7638621 C21.7650219,19.7016761 21.9766313,19.6203872 21.9766313,19.6203872 C24.7643293,18.7928662 26.8045113,16.1408158 26.8045113,12.9941225 C26.8045113,9.75516623 24.6431849,7.04214917 21.7302126,6.30140406 Z" id="Shape" fill="#EE3D96"></path>
        <polygon id="Shape" fill="#EE3D96" points="31.9924812 25.3265416 31.9924812 0 0 0 0 29.5571671 0 29.708858 0 31.9924812 26.9356825 31.9924812 26.9356825 29.6963682 2.53484577 29.708858 2.53484577 29.5571671 2.53484577 2.2836232 29.457434 2.2836232 29.457434 25.3265416"></polygon>
    </g>
</svg>